# xmcd
#
# Track frame offsets:
#	150
#	15462
#	31400
#
# Disc length: 621 seconds
#
# Revision: 0
# Processed by: cddbd v1.5.2PL0 Copyright (c) Steve Scherf et al.
# Submitted via: audiograbber 1.83.01
#
DISCID=17026b03
DTITLE=Alex and Micha - Sag nicht zu mir...
DYEAR=2007
DGENRE=Volksmusik
TTITLE0=Sag nicht zu mir..
TTITLE1=Grossvater
TTITLE2=Sag nicht zu mir..(Karaoke)
EXTD=
EXTT0=
EXTT1=
EXTT2=
PLAYORDER=
